<?xml version="1.0" encoding="UTF-8" standalone="no"?>
<svg
   xmlns:dc="http://purl.org/dc/elements/1.1/"
   xmlns:cc="http://creativecommons.org/ns#"
   xmlns:rdf="http://www.w3.org/1999/02/22-rdf-syntax-ns#"
   xmlns:svg="http://www.w3.org/2000/svg"
   xmlns="http://www.w3.org/2000/svg"
   xmlns:sodipodi="http://sodipodi.sourceforge.net/DTD/sodipodi-0.dtd"
   xmlns:inkscape="http://www.inkscape.org/namespaces/inkscape"
   version="1.1"
   id="svg2"
   viewBox="0 0 1488.189 1052.3622"
   height="297mm"
   width="420mm"
   inkscape:version="0.91 r13725"
   sodipodi:docname="drawing.svg">
  <sodipodi:namedview
     pagecolor="#ffffff"
     bordercolor="#666666"
     borderopacity="1"
     objecttolerance="10"
     gridtolerance="10"
     guidetolerance="10"
     inkscape:pageopacity="0"
     inkscape:pageshadow="2"
     inkscape:window-width="1280"
     inkscape:window-height="706"
     id="namedview4196"
     showgrid="false"
     inkscape:zoom="0.47892256"
     inkscape:cx="744.09449"
     inkscape:cy="526.1811"
     inkscape:window-x="0"
     inkscape:window-y="1"
     inkscape:window-maximized="1"
     inkscape:current-layer="svg2" />
  <defs
     id="defs4" />
  <metadata
     id="metadata7">
    <rdf:RDF>
      <cc:Work
         rdf:about="">
        <dc:format>image/svg+xml</dc:format>
        <dc:type
           rdf:resource="http://purl.org/dc/dcmitype/StillImage" />
        <dc:title />
      </cc:Work>
    </rdf:RDF>
  </metadata>
  <path
     style="fill:#0088aa;fill-opacity:1;fill-rule:evenodd;stroke:#0088aa;stroke-width:0.96336818px;stroke-linecap:butt;stroke-linejoin:miter;stroke-opacity:1"
     d="M 401.43229,199.45703 C 14.367732,109.94567 -191.22159,1203.4529 486.75919,901.33957 256.46437,1030.9104 39.577743,205.12043 401.43229,199.45703 Z"
     id="path4146"
     inkscape:connector-curvature="0" />
  <path
     inkscape:connector-curvature="0"
     style="fill:#00aad4;fill-rule:evenodd;stroke:#00aad4;stroke-width:0.96336818px;stroke-linecap:butt;stroke-linejoin:miter;stroke-opacity:1"
     d="M 504.25391,112.17969 C 441.51816,111.95753 383.34417,348.85755 373.9082,857.30078 l 121.10938,2.75195 c -62.04256,-601.38274 77.31927,-504.90358 44.03906,-5.50585 l 126.61328,0 C 640.75686,373.07597 570.00096,112.4125 504.25391,112.17969 Z m -0.98047,109.29687 30.27734,167.90235 C 514.28342,368.0932 495.01737,362.2278 475.75,392.13086 l 27.52344,-170.6543 z"
     id="path4148" />
  <path
     style="fill:#0088aa;fill-rule:evenodd;stroke:#0088aa;stroke-width:0.96336818px;stroke-linecap:butt;stroke-linejoin:miter;stroke-opacity:1"
     d="m 651.90802,174.6847 c 153.50133,291.2921 82.70134,551.43123 -24.77233,806.4768 l 454.15921,5.50496 -2.7524,-187.16868 C 428.39254,1229.4701 934.85215,546.49652 869.35398,158.16981 Z"
     id="path4152"
     inkscape:connector-curvature="0" />
  <path
     style="fill:#00aad4;fill-opacity:1;fill-rule:evenodd;stroke:#00aad4;stroke-width:0.63542676px;stroke-linecap:butt;stroke-linejoin:miter;stroke-opacity:1"
     d="M 1490.8913,606.72 C 720.19631,750.35694 1237.5299,102.76281 1280.5542,436.83223 1717.4392,-783.36741 48.127676,1406.2824 1490.8913,606.72 Z"
     id="path4236"
     inkscape:connector-curvature="0" />
</svg>
